<!-- CommonKind favicon – map pin with centered, symmetrical heart -->
<svg xmlns="http://www.w3.org/2000/svg" viewBox="0 0 64 64" role="img" aria-label="CommonKind" shape-rendering="geometricPrecision">
  <defs>
    <linearGradient id="ckg" x1="0" y1="0" x2="1" y2="1">
      <stop offset="0%" stop-color="#14b8a6"></stop>
      <stop offset="100%" stop-color="#0ea5a2"></stop>
    </linearGradient>
  </defs>

  <!-- rounded tile background -->
  <rect x="2" y="2" width="60" height="60" rx="14" fill="url(#ckg)"></rect>

  <!-- white map pin -->
  <path fill="#ffffff" d="M32 12c-8 0-14.5 6.3-14.5 14.2 0 10.4 12.9 22.8 13.7 23.5.5.4 1.2.4 1.7 0 .8-.7 13.6-13.1 13.6-23.5C46.5 18.3 40 12 32 12z"></path>

  <!-- perfectly centered, symmetrical heart (teal) inside the pin -->
  <!-- Constructed to be horizontally symmetric about x=32 -->
  <path fill="#14b8a6" d="M32 26
       c-3.2-3.2-8.5-.9-8.5 3.2
       c0 2.9 2.3 5.4 8.5 9.7
       c6.2-4.3 8.5-6.8 8.5-9.7
       c0-4.1-5.3-6.4-8.5-3.2z"></path>
</svg>
